<?xml version="1.0" encoding="utf-8"?>
<!-- Generator: Adobe Illustrator 24.0.1, SVG Export Plug-In . SVG Version: 6.00 Build 0)  -->
<svg version="1.1" id="Layer_1" xmlns="http://www.w3.org/2000/svg" xmlns:xlink="http://www.w3.org/1999/xlink" x="0px" y="0px"
	 viewBox="0 0 60 60" style="enable-background:new 0 0 60 60;" xml:space="preserve">
<path d="M55.6,0H4.4C2,0,0,1.9,0,4.3v51.3C0,58.1,2,60,4.4,60h51.1c2.4,0,4.4-1.9,4.4-4.3V4.3C60,1.9,58,0,55.6,0z M17.8,51.1H8.9
	V22.5h8.9V51.1z M13.3,18.6c-2.9,0-5.2-2.3-5.2-5.2c0-2.8,2.3-5.2,5.2-5.2c2.8,0,5.2,2.3,5.2,5.2C18.5,16.3,16.2,18.6,13.3,18.6z
	 M51.1,51.1h-8.9V37.2c0-3.3-0.1-7.6-4.6-7.6c-4.6,0-5.3,3.6-5.3,7.4v14.2h-8.9V22.5h8.5v3.9H32c1.2-2.3,4.1-4.6,8.4-4.6
	c9,0,10.7,5.9,10.7,13.6V51.1z"/>
</svg>
