<svg width="446" height="73" viewBox="0 0 446 73" fill="none" xmlns="http://www.w3.org/2000/svg">
    <path d="M31.0235 58.8142L48.5197 16.6455H61.5653V71.6255H52.965V25.0571L33.6348 71.9192H27.4487L8.31016 25.3508V71.6255H0V16.6455H13.6258L31.0235 58.8142V58.8142Z" fill="black"/>
    <path d="M108.65 62.7266C106.811 66.6387 101.501 72.7064 92.7033 72.7064C80.8129 72.7064 72.6943 63.6077 72.6943 51.0845V23.3008H81.5848V49.4221C81.5848 58.5208 86.7088 64.4887 94.8274 64.4887C102.946 64.4887 108.65 58.3269 108.65 49.4221V23.3008H117.448V71.6314H108.65V62.7266V62.7266Z" fill="black"/>
    <path d="M181.619 71.6251H170.309C159.19 71.6251 153.59 66.2446 153.59 55.4835V31.3182H143.096V23.2945H153.59V11.1094H162.388V23.2945H181.619V31.3182H162.388V53.4277C162.388 60.4706 164.61 63.4075 172.247 63.4075H181.625V71.6251H181.619Z" fill="black"/>
    <path d="M232.575 72.5069H225.519L202.997 23.3008H212.856L229.285 60.5711L245.621 23.3008H254.703L232.57 72.5069H232.575Z" fill="black"/>
    <path d="M303.326 48.541H263.604C264.086 57.54 270.469 64.5884 279.841 64.5884C289.213 64.5884 293.275 59.4018 294.047 57.8392H302.746C301.974 62.045 295.881 72.806 279.841 72.806C265.055 72.806 254.708 61.6515 254.708 47.466C254.708 33.2805 265.049 22.126 278.965 22.126C292.881 22.126 303.321 32.6931 303.321 48.541H303.326ZM264.184 41.1047H293.565C291.343 33.7681 286.219 29.7562 278.971 29.7562C271.241 29.7562 266.018 34.0618 264.184 41.1047V41.1047Z" fill="black"/>
    <path d="M320.651 71.625H311.854V23.3H320.651V32.2047C322.003 28.6805 326.065 22.9121 337.277 22.9121H342.434V31.8169H337.085C324.811 31.8169 320.656 35.729 320.656 44.34V71.6361L320.651 71.625Z" fill="black"/>
    <path d="M361.784 50.3969C352.603 49.3219 346.127 44.9166 346.127 36.0174C346.127 27.1182 354.054 21.9316 365.747 21.9316C381.891 21.9316 387.109 30.3432 388.652 35.2361H379.275C378.213 33.9616 374.638 29.5619 365.742 29.5619C358.494 29.5619 354.82 32.2051 354.82 35.7238C354.82 39.2424 357.24 41.2982 362.939 41.9853C366.705 42.473 369.027 42.6724 373.182 43.1601C384.492 44.6285 389.32 49.5159 389.32 58.4206C389.32 66.5441 381.974 72.9996 368.446 72.9996C351.629 72.9996 345.733 62.5322 344.671 58.1325H354.049C354.53 59.6951 358.395 65.1754 368.452 65.1754C376.57 65.1754 380.534 62.2385 380.534 58.4262C380.534 54.6138 378.503 52.3585 372.027 51.5772L361.784 50.4025V50.3969Z" fill="black"/>
    <path d="M188.197 0H197.378V13.9916H188.197V0ZM188.389 23.2842H197.186V71.6148H188.389V23.2842Z" fill="black"/>
    <path d="M128.578 8.43945H137.376V71.615H128.578V8.43945Z" fill="black"/>
    <path d="M424.639 29.4626L446 17.9923L442.409 11.0547L422.849 19.0063C422.345 19.2114 421.787 19.2114 421.283 19.0063L401.723 11.0547L398.132 17.9923L419.493 29.4626L398.132 40.933L401.723 47.8706L421.283 39.9189C421.787 39.7139 422.345 39.7139 422.849 39.9189L442.409 47.8706L446 40.933L424.639 29.4626Z" fill="#23F7DD"/>
</svg>
