<svg xmlns="http://www.w3.org/2000/svg" width="24" height="19" viewBox="0 0 24 19">
    <path fill="#FFF" fill-rule="nonzero" d="M2.834 3.834a.896.896 0 0 0-.292-.756L.381.475v-.39h6.71l5.187 11.376L16.838.086h6.397v.389l-1.848 1.771a.54.54 0 0 0-.205.519v13.017a.54.54 0 0 0 .205.519l1.805 1.771v.39h-9.077v-.39l1.87-1.814c.183-.184.183-.238.183-.519V5.217l-5.197 13.201h-.703l-6.051-13.2v8.847c-.05.372.073.746.335 1.015l2.431 2.95v.388H.09v-.389L2.52 15.08c.26-.27.377-.646.314-1.015V3.835z"/>
</svg>
