<svg xmlns="http://www.w3.org/2000/svg" width="23" height="19" viewBox="0 0 23 19">
    <path fill-rule="evenodd" d="M22.087 2.4c-.479.212-.976.38-1.485.5A4.63 4.63 0 0 0 21.824.955a.243.243 0 0 0-.355-.282 8.57 8.57 0 0 1-2.27.938.602.602 0 0 1-.54-.134 4.643 4.643 0 0 0-3.072-1.16c-.49 0-.985.076-1.471.227a4.499 4.499 0 0 0-3.032 3.241 4.953 4.953 0 0 0-.11 1.71.172.172 0 0 1-.186.188A12.175 12.175 0 0 1 2.418 1.21a.243.243 0 0 0-.398.03 4.64 4.64 0 0 0-.629 2.335c0 1.259.506 2.445 1.384 3.31a4.161 4.161 0 0 1-1.059-.41.243.243 0 0 0-.36.21 4.65 4.65 0 0 0 2.712 4.283 4.157 4.157 0 0 1-.882-.074.243.243 0 0 0-.276.313 4.654 4.654 0 0 0 3.675 3.165 8.568 8.568 0 0 1-4.799 1.457H1.25a.356.356 0 0 0-.347.268.368.368 0 0 0 .176.407 12.745 12.745 0 0 0 6.404 1.726c1.968 0 3.81-.39 5.473-1.16a12.085 12.085 0 0 0 4.004-3.001 13.155 13.155 0 0 0 2.452-4.107c.545-1.456.833-3.01.833-4.494v-.07a.79.79 0 0 1 .296-.616 9.178 9.178 0 0 0 1.846-2.026c.135-.202-.078-.456-.3-.357"/>
</svg>
