<svg xmlns="http://www.w3.org/2000/svg" width="24" height="17" viewBox="0 0 24 17">
    <g fill="none" fill-rule="evenodd">
        <path fill="#FFF" d="M20.177.928c1.518.245 2.343.922 2.782 2.68.148.592.352 3.832.352 5.069v.27c0 1.237-.204 4.477-.352 5.068-.44 1.759-1.264 2.437-2.782 2.681-.875.129-5.076.294-8.395.294-3.334 0-7.535-.165-8.41-.294-1.518-.244-2.343-.922-2.782-2.68-.148-.592-.352-3.832-.352-5.068v-.271C.238 7.44.442 4.2.59 3.609 1.03 1.85 1.854 1.173 3.372.928 4.247.799 8.448.634 11.767.634c3.334 0 7.535.165 8.41.294zm-4.67 7.77l-6.128-3.2v6.553l6.129-3.354z"/>
        <path fill="#140442" d="M15.508 8.697l-.703.384L9.38 5.498z"/>
    </g>
</svg>
