<svg width="326" height="50" viewBox="0 0 326 50" fill="none" xmlns="http://www.w3.org/2000/svg">
<path d="M15.9669 34.8573L24.699 13.9758H31.2016V41.2013H26.9038V18.1521L17.2685 41.3468H14.185L4.63429 18.2975V41.2123H0.50293V13.9648H7.29485L15.9669 34.8573Z" fill="#000000"/>
<path d="M54.6599 36.7947C53.9224 38.2795 52.7879 39.5283 51.3838 40.4007C49.9797 41.2732 48.3615 41.7348 46.711 41.7338C40.7868 41.7338 36.7373 37.2283 36.7373 31.0324V17.2715H41.1607V30.2065C41.1607 34.7093 43.7121 37.6646 47.7616 37.6646C51.9502 37.6646 54.649 34.6133 54.649 30.2065V17.2715H59.0341V41.2015H54.6599V36.7947Z" fill="#000000"/>
<path d="M91.0315 41.2001H85.3938C79.8544 41.2001 77.0602 38.5357 77.0602 33.207V21.2406H71.8291V17.2701H77.0602V11.2334H81.4453V17.2701H91.0315V21.2406H81.4453V32.189C81.4453 35.6765 82.5532 37.1281 86.3571 37.1281H91.0288L91.0315 41.2001Z" fill="#000000"/>
<path d="M116.432 41.6378H112.929L101.705 17.2715H106.617L114.803 35.7273L122.946 17.2715H127.473L116.432 41.6378Z" fill="#000000"/>
<path d="M151.701 29.7697H131.898C132.141 34.2258 135.32 37.7271 139.994 37.7271C144.761 37.7271 146.688 35.1588 147.075 34.385H151.406C151.021 36.4677 147.984 41.7937 139.989 41.7937C132.621 41.7937 127.461 36.2701 127.461 29.2456C127.461 22.029 132.616 16.7002 139.555 16.7002C146.546 16.6892 151.701 21.922 151.701 29.7697ZM132.187 26.0873H146.835C145.725 22.4543 143.173 20.4677 139.56 20.4677C135.705 20.4677 133.104 22.5997 132.187 26.0873Z" fill="#000000"/>
<path d="M160.335 41.201H155.95V17.271H160.335V21.6778C161.009 19.9326 163.031 17.0762 168.62 17.0762H171.19V21.483H168.524C162.406 21.483 160.338 23.4229 160.338 27.6843L160.335 41.201Z" fill="#000000"/>
<path d="M180.838 30.702C176.262 30.1532 173.034 27.9745 173.034 23.5677C173.034 19.353 176.985 16.5898 182.814 16.5898C190.861 16.5898 193.456 20.7579 194.231 23.1753H189.559C189.03 22.5442 187.245 20.3655 182.814 20.3655C179.201 20.3655 177.356 21.6716 177.356 23.4168C177.356 25.1126 178.562 26.1772 181.403 26.5175C183.283 26.7589 184.437 26.855 186.511 27.0992C192.146 27.8236 194.555 30.2465 194.555 34.656C194.555 38.6759 190.893 41.8726 184.148 41.8726C175.768 41.8726 172.826 36.6893 172.297 34.5106H176.971C177.211 35.2844 179.138 37.9982 184.148 37.9982C188.195 37.9982 190.17 36.5439 190.17 34.656C190.17 32.7682 189.158 31.6377 185.933 31.2645L180.838 30.702Z" fill="#000000"/>
<path d="M94.3086 5.73242H98.8848V12.6609H94.3086V5.73242ZM94.4041 17.257H98.7865V41.1898H94.4041V17.257Z" fill="#000000"/>
<path d="M64.5928 9.91211H68.9779V41.1932H64.5928V9.91211Z" fill="#000000"/>
<path d="M212.169 20.3224L222.812 14.6424L221.024 11.2207L211.274 15.1473C211.024 15.2489 210.744 15.2489 210.494 15.1473L200.744 11.2207L198.951 14.6534L209.593 20.3334L198.951 26.0134L200.744 29.446L210.494 25.4893C210.744 25.3876 211.024 25.3876 211.274 25.4893L221.024 29.4268L222.817 25.9941L212.169 20.3224Z" fill="#23F7DD"/>
<path d="M233.219 41.5267H241.791C250.32 41.5267 256.771 35.8551 256.771 26.3737C256.771 16.8923 250.32 11.2207 241.791 11.2207H233.219V41.5267ZM236.119 38.8425V13.9049H241.878C248.025 13.9049 253.697 17.6716 253.697 26.3737C253.697 35.0758 248.025 38.8425 241.878 38.8425H236.119Z" fill="#000000"/>
<path d="M271.407 41.873C277.815 41.873 282.404 37.1973 282.404 30.6165C282.404 24.0358 277.815 19.36 271.407 19.36C264.999 19.36 260.41 24.0358 260.41 30.6165C260.41 37.1973 264.999 41.873 271.407 41.873ZM271.407 39.362C266.558 39.362 263.268 35.7253 263.268 30.6165C263.268 25.5078 266.558 21.8711 271.407 21.8711C276.256 21.8711 279.546 25.5078 279.546 30.6165C279.546 35.7253 276.256 39.362 271.407 39.362Z" fill="#000000"/>
<path d="M296.296 41.873C301.795 41.873 305.129 39.1455 305.908 34.7728H303.31C302.444 37.6302 299.89 39.362 296.296 39.362C291.144 39.362 288.72 35.3356 288.72 30.6165C288.72 25.8975 291.101 21.8711 296.296 21.8711C299.89 21.8711 302.877 23.9925 303.31 26.8499H305.994C305.258 22.0443 300.929 19.36 296.296 19.36C289.369 19.36 285.863 24.9017 285.863 30.6165C285.863 36.3314 289.369 41.873 296.296 41.873Z" fill="#000000"/>
<path d="M317.777 41.873C322.496 41.873 325.657 39.4486 325.657 35.6387C325.657 25.5944 312.625 31.6556 312.625 25.3346C312.625 23.2565 314.487 21.8711 317.301 21.8711C319.379 21.8711 322.453 22.8236 322.799 25.8975H325.527C325.267 21.9577 322.107 19.36 317.474 19.36C312.798 19.36 309.768 21.6979 309.768 25.3346C309.768 34.8161 322.799 28.4951 322.799 35.6387C322.799 37.6302 320.808 39.362 317.777 39.362C314.314 39.362 312.279 37.7168 311.976 34.6429H309.248C309.595 39.1455 312.842 41.873 317.777 41.873Z" fill="#000000"/>
</svg>
