<?xml version="1.0" encoding="utf-8"?>
<!-- Generator: Adobe Illustrator 27.0.1, SVG Export Plug-In . SVG Version: 6.00 Build 0)  -->
<svg version="1.1" id="Layer_1" xmlns="http://www.w3.org/2000/svg" xmlns:xlink="http://www.w3.org/1999/xlink" x="0px" y="0px"
	 viewBox="0 0 322.9 47.3" style="enable-background:new 0 0 322.9 47.3;" xml:space="preserve">
<style type="text/css">
	.st0{fill:#23F7DD;}
</style>
<g>
	<path d="M15.5,29.1l8.7-20.9h6.5v27.2h-4.3v-23l-9.6,23.2h-3.1l-9.6-23v22.9H0V8.2h6.8L15.5,29.1z" fill="#000000"/>
	<path d="M54.2,31.1c-0.7,1.5-1.9,2.7-3.3,3.6c-1.4,0.9-3,1.3-4.7,1.3c-5.9,0-10-4.5-10-10.7V11.5h4.4v12.9c0,4.5,2.6,7.5,6.6,7.5
		c4.2,0,6.9-3.1,6.9-7.5V11.5h4.4v23.9h-4.4L54.2,31.1L54.2,31.1z" fill="#000000"/>
	<path d="M90.5,35.5h-5.6c-5.5,0-8.3-2.7-8.3-8v-12h-5.2v-4h5.2v-6H81v6h9.6v4H81v10.9c0,3.5,1.1,4.9,4.9,4.9h4.7L90.5,35.5z" fill="#000000"/>
	<path d="M115.9,35.9h-3.5l-11.2-24.4h4.9l8.2,18.5l8.1-18.5h4.5L115.9,35.9z" fill="#000000"/>
	<path d="M151.2,24h-19.8c0.2,4.5,3.4,8,8.1,8c4.8,0,6.7-2.6,7.1-3.3h4.3c-0.4,2.1-3.4,7.4-11.4,7.4c-7.4,0-12.5-5.5-12.5-12.5
		c0-7.2,5.2-12.5,12.1-12.5C146,11,151.2,16.2,151.2,24z M131.7,20.4h14.6c-1.1-3.6-3.7-5.6-7.3-5.6
		C135.2,14.7,132.6,16.9,131.7,20.4z" fill="#000000"/>
	<path d="M159.8,35.5h-4.4v-24h4.4v4.4c0.7-1.7,2.7-4.6,8.3-4.6h2.6v4.4H168c-6.1,0-8.2,1.9-8.2,6.2V35.5z" fill="#000000"/>
	<path d="M180.3,25c-4.6-0.5-7.8-2.7-7.8-7.1c0-4.2,4-7,9.8-7c8,0,10.6,4.2,11.4,6.6H189c-0.5-0.6-2.3-2.8-6.7-2.8
		c-3.6,0-5.5,1.3-5.5,3.1c0,1.7,1.2,2.8,4,3.1c1.9,0.2,3,0.3,5.1,0.6c5.6,0.7,8,3.1,8,7.6c0,4-3.7,7.2-10.4,7.2
		c-8.4,0-11.3-5.2-11.9-7.4h4.7c0.2,0.8,2.2,3.5,7.2,3.5c4,0,6-1.5,6-3.3c0-1.9-1-3-4.2-3.4L180.3,25z" fill="#000000"/>
	<path d="M93.8,0h4.6v6.9h-4.6V0z M93.9,11.5h4.4v23.9h-4.4V11.5z" fill="#000000"/>
	<path d="M64.1,4.2h4.4v31.3h-4.4V4.2z" fill="#000000"/>
	<path class="st0" d="M211.7,14.6l10.6-5.7l-1.8-3.4l-9.8,3.9c-0.3,0.1-0.5,0.1-0.8,0l-9.8-3.9l-1.8,3.4l10.6,5.7l-10.6,5.7l1.8,3.4
		l9.8-4c0.3-0.1,0.5-0.1,0.8,0l9.8,3.9l1.8-3.4L211.7,14.6z"/>
</g>
<g>
	<path d="M228.7,7.5h8.7c8.7,0,15.3,5.8,15.3,15.4c0,9.7-6.6,15.4-15.3,15.4h-8.7V7.5z M237.5,35.6c6.3,0,12-3.8,12-12.7
		s-5.8-12.7-12-12.7h-5.9v25.4H237.5z" fill="#000000"/>
	<path d="M256.4,27.2c0-6.7,4.7-11.5,11.2-11.5s11.2,4.8,11.2,11.5s-4.7,11.5-11.2,11.5S256.4,33.9,256.4,27.2z M275.9,27.2
		c0-5.2-3.4-8.9-8.3-8.9s-8.3,3.7-8.3,8.9s3.4,8.9,8.3,8.9C272.6,36.1,275.9,32.4,275.9,27.2z" fill="#000000"/>
	<path d="M282.4,27.2c0-5.8,3.6-11.5,10.6-11.5c4.7,0,9.1,2.7,9.9,7.6h-2.7c-0.4-2.9-3.5-5.1-7.1-5.1c-5.3,0-7.7,4.1-7.7,8.9
		s2.5,8.9,7.7,8.9c3.7,0,6.3-1.8,7.1-4.7h2.6c-0.8,4.5-4.2,7.2-9.8,7.2C285.9,38.7,282.4,33.1,282.4,27.2z" fill="#000000"/>
	<path d="M306.2,31.3h2.8c0.3,3.1,2.4,4.8,5.9,4.8c3.1,0,5.1-1.8,5.1-3.8c0-7.3-13.3-0.8-13.3-10.5c0-3.7,3.1-6.1,7.9-6.1
		c4.7,0,7.9,2.6,8.2,6.7H320c-0.4-3.1-3.5-4.1-5.6-4.1c-2.9,0-4.8,1.4-4.8,3.5c0,6.4,13.3,0.3,13.3,10.5c0,3.9-3.2,6.4-8,6.4
		C309.8,38.7,306.5,35.9,306.2,31.3z" fill="#000000"/>
</g>
</svg>
